<?xml version="1.0" encoding="UTF-8" standalone="no"?>
<!-- Created with Inkscape (http://www.inkscape.org/) -->
<svg
   xmlns:dc="http://purl.org/dc/elements/1.1/"
   xmlns:cc="http://web.resource.org/cc/"
   xmlns:rdf="http://www.w3.org/1999/02/22-rdf-syntax-ns#"
   xmlns:svg="http://www.w3.org/2000/svg"
   xmlns="http://www.w3.org/2000/svg"
   xmlns:xlink="http://www.w3.org/1999/xlink"
   xmlns:sodipodi="http://sodipodi.sourceforge.net/DTD/sodipodi-0.dtd"
   xmlns:inkscape="http://www.inkscape.org/namespaces/inkscape"
   width="448.21634"
   height="448.21634"
   id="svg2"
   sodipodi:version="0.32"
   inkscape:version="0.45"
   sodipodi:docbase="/home/frederik/bilder/clipart_freedo"
   sodipodi:docname="glossy_globe.svg"
   inkscape:output_extension="org.inkscape.output.svg.inkscape"
   version="1.0"
   sodipodi:modified="true">
  <defs
     id="defs4">
    <linearGradient
       inkscape:collect="always"
       id="linearGradient14176">
      <stop
         style="stop-color:#ffffff;stop-opacity:1;"
         offset="0"
         id="stop14178" />
      <stop
         style="stop-color:#ffffff;stop-opacity:0;"
         offset="1"
         id="stop14180" />
    </linearGradient>
    <linearGradient
       id="linearGradient11163">
      <stop
         id="stop11165"
         offset="0"
         style="stop-color:#83c1ef;stop-opacity:1;" />
      <stop
         id="stop11167"
         offset="1"
         style="stop-color:#729ec0;stop-opacity:0;" />
    </linearGradient>
    <linearGradient
       id="linearGradient10084">
      <stop
         id="stop10086"
         offset="0"
         style="stop-color:#e2ebf3;stop-opacity:0.86086959;" />
      <stop
         id="stop10088"
         offset="1"
         style="stop-color:#e2ebf3;stop-opacity:0.22745098;" />
    </linearGradient>
    <linearGradient
       id="linearGradient7124">
      <stop
         style="stop-color:#69f931;stop-opacity:1;"
         offset="0"
         id="stop7126" />
      <stop
         style="stop-color:#f1fee4;stop-opacity:0.04347826;"
         offset="1"
         id="stop7128" />
    </linearGradient>
    <linearGradient
       id="linearGradient4198">
      <stop
         style="stop-color:#588cb5;stop-opacity:1;"
         offset="0"
         id="stop4200" />
      <stop
         style="stop-color:#438cc4;stop-opacity:1;"
         offset="1"
         id="stop4202" />
    </linearGradient>
    <linearGradient
       inkscape:collect="always"
       xlink:href="#linearGradient4198"
       id="linearGradient4204"
       x1="345.29486"
       y1="216.60402"
       x2="345.29486"
       y2="659.35962"
       gradientUnits="userSpaceOnUse" />
    <radialGradient
       inkscape:collect="always"
       xlink:href="#linearGradient7124"
       id="radialGradient9072"
       cx="305.89532"
       cy="218.30354"
       fx="305.89532"
       fy="218.30354"
       r="86.901543"
       gradientTransform="matrix(0.1007048,1.0896617,-2.0555515,0.1899704,721.02208,-132.84115)"
       gradientUnits="userSpaceOnUse" />
    <radialGradient
       inkscape:collect="always"
       xlink:href="#linearGradient7124"
       id="radialGradient10051"
       cx="415.86087"
       cy="428.08954"
       fx="415.86087"
       fy="428.08954"
       r="82.419907"
       gradientTransform="matrix(-0.3618485,1.5531692,-2.5862538,-0.6025395,1686.7788,53.040872)"
       gradientUnits="userSpaceOnUse" />
    <radialGradient
       inkscape:collect="always"
       xlink:href="#linearGradient10084"
       id="radialGradient10082"
       cx="359.44235"
       cy="404.74509"
       fx="359.44235"
       fy="404.74509"
       r="211.3125"
       gradientTransform="matrix(1.155605,-6.1141469e-5,0,0.5766614,-57.462698,53.392821)"
       gradientUnits="userSpaceOnUse" />
    <radialGradient
       inkscape:collect="always"
       xlink:href="#linearGradient11163"
       id="radialGradient11161"
       cx="303.89319"
       cy="416.93665"
       fx="303.89319"
       fy="416.93665"
       r="224.10817"
       gradientUnits="userSpaceOnUse"
       gradientTransform="matrix(0.9342582,0,0,1,22.812619,-2.8010504e-7)" />
    <filter
       inkscape:collect="always"
       x="-0.05100197"
       width="1.1020039"
       y="-0.19546671"
       height="1.3909334"
       id="filter14172">
      <feGaussianBlur
         inkscape:collect="always"
         stdDeviation="8.8998435"
         id="feGaussianBlur14174" />
    </filter>
    <radialGradient
       inkscape:collect="always"
       xlink:href="#linearGradient14176"
       id="radialGradient14184"
       cx="351.84375"
       cy="610.375"
       fx="351.84375"
       fy="610.375"
       r="174.5"
       gradientTransform="matrix(1.2586048,0,0,0.2446767,-90.988493,461.03045)"
       gradientUnits="userSpaceOnUse" />
    <filter
       inkscape:collect="always"
       x="-0.068748891"
       width="1.1374978"
       y="-0.15424021"
       height="1.3084804"
       id="filter15171">
      <feGaussianBlur
         inkscape:collect="always"
         stdDeviation="14.5275"
         id="feGaussianBlur15173" />
    </filter>
  </defs>
  <sodipodi:namedview
     id="base"
     pagecolor="#ffffff"
     bordercolor="#666666"
     borderopacity="1.0"
     inkscape:pageopacity="0.0"
     inkscape:pageshadow="2"
     inkscape:zoom="1.6398331"
     inkscape:cx="224.10817"
     inkscape:cy="223.19344"
     inkscape:document-units="px"
     inkscape:current-layer="svg2"
     inkscape:window-width="1280"
     inkscape:window-height="951"
     inkscape:window-x="0"
     inkscape:window-y="24" />
  <metadata
     id="metadata7">
    <rdf:RDF>
      <cc:Work
         rdf:about="">
        <dc:format>image/svg+xml</dc:format>
        <dc:type
           rdf:resource="http://purl.org/dc/dcmitype/StillImage" />
        <dc:title>Glossy Globe</dc:title>
        <dc:date>2007-03-03</dc:date>
        <dc:creator>
          <cc:Agent>
            <dc:title>Frederik Elwert</dc:title>
          </cc:Agent>
        </dc:creator>
        <cc:license
           rdf:resource="http://web.resource.org/cc/PublicDomain" />
        <dc:subject>
          <rdf:Bag>
            <rdf:li>globe</rdf:li>
            <rdf:li>map</rdf:li>
            <rdf:li>world</rdf:li>
            <rdf:li>planet</rdf:li>
            <rdf:li>glossy</rdf:li>
          </rdf:Bag>
        </dc:subject>
        <dc:description>A globe with a glossy surface showing north and south america</dc:description>
      </cc:Work>
      <cc:License
         rdf:about="http://web.resource.org/cc/PublicDomain">
        <cc:permits
           rdf:resource="http://web.resource.org/cc/Reproduction" />
        <cc:permits
           rdf:resource="http://web.resource.org/cc/Distribution" />
        <cc:permits
           rdf:resource="http://web.resource.org/cc/DerivativeWorks" />
      </cc:License>
    </rdf:RDF>
  </metadata>
  <g
     inkscape:label="Water"
     inkscape:groupmode="layer"
     id="layer1"
     style="display:inline"
     transform="translate(-127.71426,-219.17851)">
    <g
       inkscape:groupmode="layer"
       id="layer7"
       inkscape:label="Shape"
       style="display:inline">
      <path
         sodipodi:type="arc"
         style="opacity:1;color:#000000;fill:url(#linearGradient4204);fill-opacity:1;fill-rule:nonzero;stroke:none;stroke-width:1.5;stroke-linecap:butt;stroke-linejoin:miter;marker:none;marker-start:none;marker-mid:none;marker-end:none;stroke-miterlimit:4;stroke-dasharray:none;stroke-dashoffset:0;stroke-opacity:1;visibility:visible;display:inline;overflow:visible;enable-background:accumulate"
         id="path2241"
         sodipodi:cx="340.26733"
         sodipodi:cy="441.46219"
         sodipodi:rx="224.10817"
         sodipodi:ry="224.10817"
         d="M 564.3755 441.46219 A 224.10817 224.10817 0 1 1  116.15916,441.46219 A 224.10817 224.10817 0 1 1  564.3755 441.46219 z"
         transform="translate(11.555098,1.8244894)" />
      <path
         transform="translate(11.555098,1.8244894)"
         d="M 564.3755 441.46219 A 224.10817 224.10817 0 1 1  116.15916,441.46219 A 224.10817 224.10817 0 1 1  564.3755 441.46219 z"
         sodipodi:ry="224.10817"
         sodipodi:rx="224.10817"
         sodipodi:cy="441.46219"
         sodipodi:cx="340.26733"
         id="path11159"
         style="opacity:1;color:#000000;fill:url(#radialGradient11161);fill-opacity:1;fill-rule:nonzero;stroke:none;stroke-width:1.5;stroke-linecap:butt;stroke-linejoin:miter;marker:none;marker-start:none;marker-mid:none;marker-end:none;stroke-miterlimit:4;stroke-dasharray:none;stroke-dashoffset:0;stroke-opacity:1;visibility:visible;display:inline;overflow:visible;enable-background:accumulate"
         sodipodi:type="arc" />
    </g>
    <g
       inkscape:groupmode="layer"
       id="layer6"
       inkscape:label="Highlights-Water"
       style="display:inline">
      <path
         style="opacity:1;color:#000000;fill:url(#radialGradient10082);fill-opacity:1;fill-rule:nonzero;stroke:none;stroke-width:1.5;stroke-linecap:butt;stroke-linejoin:miter;marker:none;marker-start:none;marker-mid:none;marker-end:none;stroke-miterlimit:4;stroke-dasharray:none;stroke-dashoffset:0;stroke-opacity:1;visibility:visible;display:inline;overflow:visible;enable-background:accumulate"
         d="M 351.84375,234.5625 C 242.54487,234.5625 152.57356,316.88479 140.5,422.9375 C 195.92598,389.0005 270.19663,368.21875 351.8125,368.21875 C 433.42264,368.21875 507.70027,389.00473 563.125,422.9375 C 551.0544,316.88435 461.14201,234.5625 351.84375,234.5625 z "
         id="path10070" />
      <path
         id="path10090"
         d="M 351.84375,274.5625 C 242.54487,274.5625 140.10847,358.71424 144.5,462.9375 C 199.92598,429.0005 270.19663,408.21875 351.8125,408.21875 C 433.42264,408.21875 503.70027,429.00473 559.125,462.9375 C 564.12931,359.93344 461.14201,274.5625 351.84375,274.5625 z "
         style="opacity:1;color:#000000;fill:#ffffff;fill-opacity:0.40273037;fill-rule:nonzero;stroke:none;stroke-width:1.5;stroke-linecap:butt;stroke-linejoin:miter;marker:none;marker-start:none;marker-mid:none;marker-end:none;stroke-miterlimit:4;stroke-dasharray:none;stroke-dashoffset:0;stroke-opacity:1;visibility:visible;display:inline;overflow:visible;filter:url(#filter15171);enable-background:accumulate"
         sodipodi:nodetypes="ccscc" />
      <path
         style="opacity:1;color:#000000;fill:url(#radialGradient14184);fill-opacity:1;fill-rule:nonzero;stroke:none;stroke-width:1.5;stroke-linecap:butt;stroke-linejoin:miter;marker:none;marker-start:none;marker-mid:none;marker-end:none;stroke-miterlimit:4;stroke-dasharray:none;stroke-dashoffset:0;stroke-opacity:1;visibility:visible;display:inline;overflow:visible;filter:url(#filter14172);enable-background:accumulate"
         d="M 177.34375,564.84375 C 215.7652,619.89994 279.56642,655.90624 351.84375,655.90625 C 424.13089,655.90627 487.93308,619.91249 526.34375,564.84375 C 479.09106,594.93606 418.2689,613.03125 351.84375,613.03125 C 285.42899,613.03124 224.60201,594.92785 177.34375,564.84375 z "
         id="path12141" />
    </g>
  </g>
  <g
     inkscape:groupmode="layer"
     id="layer3"
     inkscape:label="Continents"
     style="display:inline"
     transform="translate(-127.71426,-219.17851)">
    <g
       inkscape:groupmode="layer"
       id="layer4"
       inkscape:label="Shapes"
       style="display:inline">
      <path
         style="fill:#226e00;fill-opacity:1;fill-rule:evenodd;stroke:none;stroke-width:1px;stroke-linecap:butt;stroke-linejoin:miter;stroke-opacity:1;display:inline"
         d="M 370.97959,650.97443 L 384.35918,642.46014 L 377.98518,635.79375 L 395.91429,598.67239 C 394.7174,587.90476 395.731,578.08449 398.9551,568.26422 L 389.22449,562.18259 L 373.04964,559.74994 L 370.68722,546.9317 L 361.3192,539.38818 L 360.64082,529.29496 L 349.08571,519.003 L 350.93361,508.05606 L 359.78709,505.30762 L 349.08571,494.67647 L 359.42449,486.77035 L 367.93878,484.94586 L 360.34844,476.1626 L 372.19592,466.70096 C 374.27377,458.14766 377.29898,450.85751 382.2189,442.93578 L 381.92653,430.81933 L 386.13686,430.50354 L 390.70978,421.38109 L 400.77959,419.87239 L 415.98367,422.9132 L 415.66788,428.36327 L 431.11753,426.90138 L 450.64898,435.07647 L 458.5551,442.37443 L 471.32653,442.98259 C 478.37553,448.41683 483.03543,453.14048 483.37024,455.27688 C 483.71044,457.44768 486.80596,462.53829 492.61224,467.30912 L 489.57143,477.6479 L 498.08571,485.55402 L 507.20816,486.16218 L 511.46531,491.02749 L 522.41224,491.02749 L 523.62857,498.32545 L 532.14286,498.32545 L 532.14286,511.09688 C 516.29146,525.34183 511.46766,556.78856 503.53578,565.2 C 497.62802,571.46495 488.01208,574.18215 477.40816,576.77851 L 471.27972,591.39783 C 461.54514,599.86928 460.60389,604.74285 453.76002,610.49646 C 450.98634,612.82828 447.67839,613.82965 443.69022,615.02257 L 441.52653,607.18667 L 443.95918,603.53769 L 437.26939,607.18667 L 433.62041,615.09279 L 432.98884,621.10421 L 419.97185,629.95768 L 403.48121,632.12137 L 401.9491,638.76435 C 391.2788,643.17357 389.45048,646.63543 389.83265,649.14994 L 370.97959,650.97443 z "
         id="path5176"
         sodipodi:nodetypes="cccccccccccccccccccccccccccccscccccccccsccsccccccccccc" />
      <path
         style="fill:#226e00;fill-opacity:1;fill-rule:evenodd;stroke:none;stroke-width:1px;stroke-linecap:butt;stroke-linejoin:miter;stroke-opacity:1;display:inline"
         d="M 341.67947,438.79176 C 338.52161,431.84448 328.08926,428.93373 322.73236,423.63407 L 320.83765,412.26581 C 313.89038,413.21316 307.89046,413.52895 300.94319,411.31845 C 300.20636,408.89743 299.46952,406.47642 298.73269,404.0554 L 286.73286,397.10812 L 279.15402,403.73961 C 262.31215,401.95016 263.78581,396.05551 244.73344,384.16094 L 243.78609,370.89796 C 240.31245,362.58229 237.78617,354.26662 230.52311,346.8983 L 230.8389,337.74053 L 225.78634,334.89846 L 225.78634,352.58243 L 233.36518,363.00333 L 233.68097,371.84532 C 223.04954,357.42447 219.99695,344.58254 219.78642,329.53012 C 215.70366,319.54883 216.31279,322.58284 216.31279,322.58284 L 216.62858,311.84615 C 219.89169,298.7937 224.10215,291.42538 236.83882,278.37294 C 238.83879,265.95205 247.47025,260.79423 252.94386,252.47855 C 265.15422,244.89971 289.99598,234.4788 317.04823,231.63674 L 359.995,229.11046 L 378.94211,235.42616 L 381.1526,243.63657 L 374.52111,239.21558 L 361.57393,238.58401 L 358.73186,233.53145 L 347.67938,234.16302 L 347.99517,239.21558 L 332.5217,239.53136 L 318.94294,245.84707 C 319.67977,252.47856 337.469,253.7417 347.67938,258.16269 L 354.31087,264.47839 L 352.41616,256.26797 L 356.83715,251.84698 L 353.04773,247.74178 L 352.10037,240.47872 C 363.99494,241.21555 374.94216,243.8471 377.36318,248.37335 L 386.20516,246.79442 C 395.04714,255.84693 403.57334,259.2153 414.62582,262.58368 C 415.99422,269.21517 419.25734,272.05723 424.41516,273.95194 L 417.78367,275.84665 L 411.15219,272.37301 L 410.52061,264.1626 L 403.57334,269.21516 L 391.57351,267.00467 L 385.57359,270.16252 L 395.36293,269.21516 L 401.04706,283.10971 L 387.15252,285.3202 L 382.73153,290.05698 L 383.99467,295.42533 L 379.57368,296.0569 L 375.46847,302.3726 L 371.04748,299.53053 L 366.62649,302.05681 L 370.10012,311.21458 C 363.25811,319.53025 349.78462,327.84593 346.73203,339.95102 L 353.99508,349.10879 L 353.36351,359.84548 L 348.62674,360.47705 L 343.25839,352.58243 L 342.94261,343.10887 L 327.46914,334.58268 C 318.83768,334.89846 313.04828,335.84582 307.25889,340.26681 L 293.36435,338.3721 L 278.20666,350.37193 L 281.99608,356.37185 L 276.94352,369.31904 L 281.6803,381.95044 L 289.57492,389.84507 L 304.41683,386.68722 L 314.83773,375.31895 L 320.83765,375.63474 L 320.20608,383.52937 L 314.52195,388.58193 L 314.52195,400.58176 L 333.15327,400.26598 C 333.8901,405.31854 337.78478,406.58168 340.10054,409.73953 L 337.57426,426.16035 L 343.25839,432.79184 L 341.67947,438.79176 z "
         id="path6147"
         sodipodi:nodetypes="cccccccccccccccccccccccccccccccccccccccccccccccccccccccccccccccccccccccccccccccccc" />
    </g>
    <g
       inkscape:groupmode="layer"
       id="layer5"
       inkscape:label="Highlights"
       style="display:inline">
      <path
         style="fill:url(#radialGradient9072);fill-opacity:1;fill-rule:evenodd;stroke:none;stroke-width:1px;stroke-linecap:butt;stroke-linejoin:miter;stroke-opacity:1"
         d="M 348.94252,323.5302 C 338.62688,313.53033 331.91762,306.52522 311.99567,305.53045 C 292.45729,304.57059 280.57433,316.35618 263.68055,323.5302 C 252.36167,328.33681 236.31251,331.53009 227.36526,330.79326 L 219.15485,320.05656 C 216.20752,308.6883 228.73366,292.58326 239.68088,283.10971 L 242.20716,271.10987 C 248.73338,262.89946 255.51512,255.24211 264.6279,250.26806 C 275.51727,244.32429 288.31179,241.11029 306.31154,237.00508 L 332.5217,233.84723 L 313.25881,244.58393 L 313.57459,251.21541 L 337.57426,259.42583 C 343.15313,265.10996 348.10043,269.84674 354.31087,270.79409 L 363.15285,271.10987 L 359.36343,260.0574 L 366.3107,256.26797 L 360.31079,245.84707 L 371.67905,250.26806 L 382.73153,249.95227 L 391.88929,257.53112 L 392.20508,261.00475 L 382.41574,266.3731 L 380.52103,274.58351 L 391.57351,274.58351 L 392.52086,279.32029 L 379.88946,285.95177 L 379.57368,293.8464 C 373.78428,297.4253 366.55489,296.43906 363.15285,300.79367 C 360.52131,304.16204 362.31076,310.68827 362.83707,313.74086 L 348.94252,323.5302 z "
         id="path7122"
         sodipodi:nodetypes="cssccccsccccccccccccccccccccscc" />
      <path
         style="fill:url(#radialGradient10051);fill-opacity:1;fill-rule:evenodd;stroke:none;stroke-width:1px;stroke-linecap:butt;stroke-linejoin:miter;stroke-opacity:1"
         d="M 377.0474,543.00083 L 377.0474,527.84315 L 360.62657,517.73803 L 366.94227,511.42233 L 367.57384,494.68572 L 374.8369,495.0015 L 371.36326,472.58076 L 377.99475,469.42291 L 397.88921,431.21291 L 404.5207,434.37076 L 429.78351,431.21291 L 439.88863,441.63382 L 461.36201,446.3706 L 475.88813,455.52837 L 483.15119,467.5282 L 486.30904,482.68588 L 505.88771,494.68572 L 515.67705,495.31729 L 525.46639,509.21183 C 510.83501,523.00111 494.88919,538.79867 473.04606,545.8429 C 460.72244,549.81717 446.08578,549.62879 434.83607,555.63224 C 424.19135,561.31284 415.88896,569.31626 407.36276,580.89505 L 402.94177,564.15844 C 393.04717,558.36904 383.15258,552.26386 377.0474,543.00083 z "
         id="path9074"
         sodipodi:nodetypes="cccccccccccccccccccssccc" />
    </g>
  </g>
</svg>
